# xmcd
#
# Track frame offsets:
# 150
# 17065
# 32452
# 49775
# 67500
# 84027
# 99354
# 117062
# 135375
# 151430
# 169242
# 189022
# 206827
# 220945
# 237925
# 251870
#
# Disc length: 3584 seconds
#
#
# Revision: 0
# Processed by: cddbd v1.5.1PL2 Copyright (c) Steve Scherf et al.
# Submitted via: FreeRIP 2.941 
#
DISCID=c30dfe10
DTITLE=Forró Moral - Viciado em Você
DYEAR=2005
DGENRE=Forró
TTITLE0=Viciado em Forró
TTITLE1=A melhor coisa do mundo
TTITLE2=Coração
TTITLE3=Covarda
TTITLE4=Me dá um beijo
TTITLE5=Bacolejo
TTITLE6=Por quê?
TTITLE7=Forró do futuro
TTITLE8=Idiota
TTITLE9=Palhaço
TTITLE10=Aquela noite no forró
TTITLE11=O som da galera
TTITLE12=Corre Veado
TTITLE13=Beijo Bom
TTITLE14=Mexe a Bundinha
TTITLE15=Forró Brasileiro
EXTD=
EXTT0=
EXTT1=
EXTT2=
EXTT3=
EXTT4=
EXTT5=
EXTT6=
EXTT7=
EXTT8=
EXTT9=
EXTT10=
EXTT11=
EXTT12=
EXTT13=
EXTT14=
EXTT15=
PLAYORDER=
